<?xml version="1.0" encoding="UTF-8" standalone="no"?>
<!-- Created with Inkscape (http://www.inkscape.org/) -->

<svg
   xmlns:dc="http://purl.org/dc/elements/1.1/"
   xmlns:cc="http://creativecommons.org/ns#"
   xmlns:rdf="http://www.w3.org/1999/02/22-rdf-syntax-ns#"
   xmlns:svg="http://www.w3.org/2000/svg"
   xmlns="http://www.w3.org/2000/svg"
   xmlns:sodipodi="http://sodipodi.sourceforge.net/DTD/sodipodi-0.dtd"
   xmlns:inkscape="http://www.inkscape.org/namespaces/inkscape"
   width="79.784256mm"
   height="49.212502mm"
   viewBox="0 0 79.784256 49.212502"
   version="1.1"
   id="svg8"
   inkscape:version="0.92.0 r15299"
   sodipodi:docname="android kitkat 4.4.svg">
  <defs
     id="defs2" />
  <sodipodi:namedview
     id="base"
     pagecolor="#ffffff"
     bordercolor="#666666"
     borderopacity="1.0"
     inkscape:pageopacity="0.0"
     inkscape:pageshadow="2"
     inkscape:zoom="2.6596204"
     inkscape:cx="150.7734"
     inkscape:cy="93.000003"
     inkscape:document-units="mm"
     inkscape:current-layer="layer1"
     showgrid="false"
     fit-margin-top="0"
     fit-margin-left="0"
     fit-margin-right="0"
     fit-margin-bottom="0"
     inkscape:window-width="1280"
     inkscape:window-height="744"
     inkscape:window-x="-4"
     inkscape:window-y="-4"
     inkscape:window-maximized="1" />
  <metadata
     id="metadata5">
    <rdf:RDF>
      <cc:Work
         rdf:about="">
        <dc:format>image/svg+xml</dc:format>
        <dc:type
           rdf:resource="http://purl.org/dc/dcmitype/StillImage" />
        <dc:title></dc:title>
      </cc:Work>
    </rdf:RDF>
  </metadata>
  <g
     inkscape:label="Layer 1"
     inkscape:groupmode="layer"
     id="layer1"
     transform="translate(-8.4888241,-300.92618)">
    <path
       d="m 88.273081,300.92618 v 49.2125 H 8.4888241 v -49.2125 z"
       style="fill:#ec1c23;fill-rule:evenodd;stroke-width:0.26458332"
       id="path10"
       inkscape:connector-curvature="0" />
    <g
       id="g67"
       transform="translate(2.9479765,14.094413)">
      <path
         inkscape:connector-curvature="0"
         id="path12"
         style="fill:#ffffff;fill-rule:evenodd;stroke-width:0.26458332"
         d="M 39.190148,291.3593 C 18.622974,295.68283 6.2204454,309.11451 9.6337027,319.23598 13.04696,329.35746 26.516791,335.49058 49.036458,331.9539 71.556097,328.41718 85.129751,313.05899 81.084404,302.95604 77.039058,292.85308 59.757321,287.0358 39.190148,291.3593 Z" />
      <path
         inkscape:connector-curvature="0"
         id="path14"
         style="fill:#ec1c23;fill-rule:evenodd;stroke-width:0.26458332"
         d="m 45.685457,317.74715 c -0.583142,1.02751 -1.517174,1.69299 -2.731876,1.84396 -2.386198,0.29662 -3.449241,-2.39737 -3.375977,-5.69161 0.06533,-2.9373 0.741071,-4.75933 2.573628,-5.68492 1.601258,-0.80873 2.560055,-0.20587 3.157432,0.96959 l -0.233786,-5.31209 3.043793,-0.57232 0.236193,15.08159 -2.617734,0.53957 z m -1.901772,-7.96507 c 0.329776,-0.15224 1.237482,0.0185 1.327705,0.95197 0.08821,0.9117 0.150998,3.08221 0.189151,4.67011 0.0013,0.0581 -0.0031,0.11707 -0.0043,0.17671 -0.02482,1.21103 -1.296538,2.63414 -2.210329,0.89675 -0.02596,-0.0493 -0.06189,-0.0949 -0.08139,-0.14803 -0.298476,-0.81404 -0.32512,-1.90238 -0.306969,-2.80387 0.04411,-2.19197 0.414152,-3.43329 1.086088,-3.74364 z" />
      <path
         inkscape:connector-curvature="0"
         id="path16"
         style="fill:#ec1c23;fill-rule:evenodd;stroke-width:0.26458332"
         d="m 49.07088,307.14455 0.22942,11.07795 2.884196,-0.42606 c -0.03418,-1.06757 -0.148563,-3.85929 0.02408,-6.04261 0.122396,-1.54815 0.95205,-2.66954 2.424377,-2.48031 -0.114459,0.50999 -0.188463,1.05487 -0.219737,1.62883 -0.182933,3.35492 1.730455,5.99461 4.457462,5.85526 2.727007,-0.13936 4.376473,-2.51371 4.45733,-5.85526 0.08086,-3.34153 -1.826022,-6.05655 -4.45733,-5.88817 -1.972284,0.12623 -3.389471,1.48643 -4.052623,3.57269 l -0.0771,-2.6222 c -1.147128,-0.0111 -2.185115,0.63328 -2.982516,2.72031 l -0.131101,-1.99927 z m 9.799717,0.0656 c 0.778271,0 1.409329,1.66581 1.409329,3.71998 0,2.0541 -0.631058,3.71994 -1.409329,3.71994 -0.778272,0 -1.40933,-1.66584 -1.40933,-3.71994 0,-2.05417 0.631058,-3.71998 1.40933,-3.71998 z" />
      <path
         inkscape:connector-curvature="0"
         id="path18"
         style="fill:#ec1c23;fill-rule:evenodd;stroke-width:0.26458332"
         d="m 63.786846,304.45702 3.048079,-0.58997 0.22942,11.14351 -3.015297,0.42609 z" />
      <path
         inkscape:connector-curvature="0"
         id="path20"
         style="fill:#ec1c23;fill-rule:evenodd;stroke-width:0.26458332"
         d="m 63.688527,300.39876 3.243606,-0.66143 0.06435,3.07644 -3.210904,0.62865 z" />
      <path
         inkscape:connector-curvature="0"
         id="path22"
         style="fill:#ec1c23;fill-rule:evenodd;stroke-width:0.26458332"
         d="m 40.868267,292.51537 c -19.443805,3.73327 -32.5731708,16.39364 -29.868812,26.30151 2.704359,9.90788 19.021266,14.93319 38.400672,11.36272 C 68.779533,326.60915 82.73006,314.25996 79.777442,304.0815 76.824851,293.903 60.31202,288.78215 40.868267,292.51537 Z m -17.875778,16.51762 c -0.169889,0.6795 -2.09513,10.36238 -2.09513,10.36238 l 4.416742,-0.96263 z m 50.113485,-10.14698 0.9321,-0.20926 c -6.368997,-5.29133 -18.72607,-7.31668 -32.547665,-4.71832 -18.229421,3.42705 -31.328333,14.65816 -28.711207,24.21721 0.47662,1.7409 1.398296,3.31536 2.693167,4.70723 l 4.688866,-19.68225 5.88899,-1.13252 4.899898,16.54177 -0.257016,-0.92225 -0.06107,-7.20392 2.503064,-0.57997 0.122105,1.58732 c 1.517174,-3.11177 5.329264,-3.14042 5.690024,-0.0626 l 0.170762,8.57909 -2.930393,0.6105 -0.204761,-7.63064 c -0.03074,-2.11291 -2.386118,-1.20917 -2.204984,0.42688 l 0.02879,7.63111 -2.029036,0.35804 1.803744,6.08933 -5.492618,1.07587 -1.642137,-5.71912 -6.341983,1.24576 -0.470931,1.97797 c 6.862947,3.84525 17.880964,5.07532 29.814069,2.83493 18.074481,-3.39338 31.464964,-14.67196 28.711208,-24.2172 -0.422408,-1.46415 -1.149694,-2.81199 -2.143734,-4.03254 l 0.237516,12.59866 -2.524627,0.42704 -0.0172,-1.22219 c -0.510805,1.33702 -1.479206,2.08994 -2.906977,2.0742 -2.485575,-0.0274 -3.183837,-2.53704 -3.239717,-5.90836 -0.05588,-3.37132 1.078494,-5.45197 3.463131,-5.80903 1.20351,-0.18023 1.898994,0.36306 2.330238,1.41555 z m -0.980335,5.79562 c 0.493819,2.6e-4 0.957924,0.32025 1.038093,1.13686 0.06329,0.64492 0.05593,1.47621 0.105516,2.4489 0.03969,0.77848 0.0453,1.89839 -0.03773,2.50687 -0.157797,1.15674 -0.590999,1.30146 -1.105879,1.35195 -1.263517,0.12382 -1.459124,-1.43836 -1.391999,-3.834 0.06713,-2.39564 0.409654,-3.61117 1.391999,-3.61058 z" />
      <path
         inkscape:connector-curvature="0"
         id="path24"
         style="fill:#f58d91;fill-rule:evenodd;stroke-width:0.26458332"
         d="m 22.979418,303.13709 -2.539788,0.37349 -4.482015,18.9738 c 0,0 7.021803,-19.27259 7.021803,-19.34729 z m 8.813721,7.52758 -0.897758,0.18902 0.09451,5.31561 c 0,0 0.779621,-5.45737 0.803249,-5.50463 z m 1.819116,0.70877 c 0.803328,-0.74822 1.764003,-1.40962 2.693246,-1.84274 -1.384273,-0.15023 -2.468536,1.23457 -2.693246,1.84274 z m 10.442257,-3.07126 c -1.896824,0.82982 -3.25329,2.40676 -4.205261,4.55962 0.185553,-2.27399 1.518973,-4.84582 4.205261,-4.55962 z m 2.953121,-4.34699 -1.535642,0.33075 0.04725,7.18198 z m 3.283876,3.33113 -0.992267,0.18899 0.118136,5.36286 z m 2.298885,0.52694 c 0.200025,-0.68511 0.572346,-1.1562 1.25214,-1.22851 z m 6.923563,-2.38702 c -2.299202,0.88048 -3.827409,2.43502 -4.774882,4.49728 0.500168,-2.46702 2.020808,-4.56869 4.774882,-4.49728 z m 4.543558,-0.65415 1.004861,-0.33497 -0.913501,5.75506 z m -0.152242,-3.98897 0.943954,-0.27403 -0.883046,1.61386 z m 3.922342,6.92333 c 0.864844,-2.05537 2.218055,-3.50018 4.059846,-4.33454 -0.897995,-0.31792 -1.747652,-0.008 -2.564103,0.73261 -0.887862,1.071 -1.340697,2.28697 -1.495743,3.60193 z m 5.494523,-8.5775 0.152612,7.32599 1.526249,-7.50916 z" />
    </g>
  </g>
</svg>
